<?xml version="1.0" encoding="utf-8"?>
<!-- Generator: Adobe Illustrator 27.6.1, SVG Export Plug-In . SVG Version: 6.00 Build 0)  -->
<svg version="1.1" id="Layer_1" xmlns="http://www.w3.org/2000/svg" xmlns:xlink="http://www.w3.org/1999/xlink" x="0px" y="0px"
	 viewBox="0 0 1000 1000" style="enable-background:new 0 0 1000 1000;" xml:space="preserve">
<style type="text/css">
	.st0{fill:#FFFFFF;}
	.st1{fill:#2EFF1D;}
</style>
<g>
	<g>
		<rect x="243.5" y="252.2" width="499" height="499"/>
	</g>
	<g>
		<g>
			<path class="st0" d="M366.9,417.4h-73.3v-25.7h175.9v25.7h-73.3v194.3h-29.3V417.4z"/>
		</g>
		<g>
			<path class="st0" d="M512.8,391.8h110c40.3,0,62.3,22,62.3,58.6c0,18.3-11,36.7-22,44c14.7,7.3,29.3,33,29.3,55
				c0,36.7-25.7,62.3-62.3,62.3H512.8V391.8z M619.1,483.4c25.7,0,36.7-14.7,36.7-33c0-18.3-11-33-36.7-33h-77v66H619.1z M622.8,586
				c25.7,0,40.3-14.7,40.3-36.7c0-22-14.7-40.3-40.3-40.3h-80.6v77H622.8z"/>
		</g>
	</g>
	<g>
		<path class="st1" d="M177.7,815.3l56.6-529.8l480.4-100.8l107.6,368.8l-75.9-8.4l72.9,204.7L177.7,815.3z M255.2,304.4
			l-51.8,485.3L788,729.9l-75.4-211.7l78.1,8.7l-92.1-315.6L255.2,304.4z"/>
	</g>
</g>
</svg>
