<?xml version="1.0" encoding="utf-8"?>
<!-- Generator: Adobe Illustrator 27.6.1, SVG Export Plug-In . SVG Version: 6.00 Build 0)  -->
<svg version="1.1" id="Layer_1" xmlns="http://www.w3.org/2000/svg" xmlns:xlink="http://www.w3.org/1999/xlink" x="0px" y="0px"
	 viewBox="0 0 733 302.5" style="enable-background:new 0 0 733 302.5;" xml:space="preserve">
<style type="text/css">
	.st0{fill:#FFFFFF;}
	.st1{fill:#2EFF1D;}
</style>
<g>
	<g>
		<g>
			<path d="M308.4,79v13.9h49.9V79H308.4z M308.4,79v13.9h49.9V79H308.4z M308.4,79v13.9h49.9V79H308.4z M517.8,52.6
				c-18,0-31.9,15.3-31.9,33.3c0,18,13.9,33.3,31.9,33.3c18,0,31.9-15.2,31.9-33.3C549.7,67.9,535.8,52.6,517.8,52.6z M517.8,52.6
				c-18,0-31.9,15.3-31.9,33.3c0,18,13.9,33.3,31.9,33.3c18,0,31.9-15.2,31.9-33.3C549.7,67.9,535.8,52.6,517.8,52.6z M308.4,79
				v13.9h49.9V79H308.4z M308.4,79v13.9h49.9V79H308.4z M517.8,52.6c-18,0-31.9,15.3-31.9,33.3c0,18,13.9,33.3,31.9,33.3
				c18,0,31.9-15.2,31.9-33.3C549.7,67.9,535.8,52.6,517.8,52.6z M517.8,52.6c-18,0-31.9,15.3-31.9,33.3c0,18,13.9,33.3,31.9,33.3
				c18,0,31.9-15.2,31.9-33.3C549.7,67.9,535.8,52.6,517.8,52.6z M308.4,79v13.9h49.9V79H308.4z M308.4,79v13.9h49.9V79H308.4z
				 M517.8,52.6c-18,0-31.9,15.3-31.9,33.3c0,18,13.9,33.3,31.9,33.3c18,0,31.9-15.2,31.9-33.3C549.7,67.9,535.8,52.6,517.8,52.6z
				 M517.8,52.6c-18,0-31.9,15.3-31.9,33.3c0,18,13.9,33.3,31.9,33.3c18,0,31.9-15.2,31.9-33.3C549.7,67.9,535.8,52.6,517.8,52.6z
				 M308.4,79v13.9h49.9V79H308.4z M153.1,175.4H124v25h29.1c9.7,0,13.9-5.5,13.9-12.5C167,181,162.8,175.4,153.1,175.4z
				 M154.5,210.1H124v29.1h30.5c9.7,0,15.2-5.5,15.2-13.9C169.7,217,164.2,210.1,154.5,210.1z M308.4,79v13.9h49.9V79H308.4z
				 M517.8,52.6c-18,0-31.9,15.3-31.9,33.3c0,18,13.9,33.3,31.9,33.3c18,0,31.9-15.2,31.9-33.3C549.7,67.9,535.8,52.6,517.8,52.6z
				 M517.8,52.6c-18,0-31.9,15.3-31.9,33.3c0,18,13.9,33.3,31.9,33.3c18,0,31.9-15.2,31.9-33.3C549.7,67.9,535.8,52.6,517.8,52.6z
				 M308.4,79v13.9h49.9V79H308.4z M154.5,210.1H124v29.1h30.5c9.7,0,15.2-5.5,15.2-13.9C169.7,217,164.2,210.1,154.5,210.1z
				 M153.1,175.4H124v25h29.1c9.7,0,13.9-5.5,13.9-12.5C167,181,162.8,175.4,153.1,175.4z M153.1,175.4H124v25h29.1
				c9.7,0,13.9-5.5,13.9-12.5C167,181,162.8,175.4,153.1,175.4z M154.5,210.1H124v29.1h30.5c9.7,0,15.2-5.5,15.2-13.9
				C169.7,217,164.2,210.1,154.5,210.1z M308.4,79v13.9h49.9V79H308.4z M517.8,52.6c-18,0-31.9,15.3-31.9,33.3
				c0,18,13.9,33.3,31.9,33.3c18,0,31.9-15.2,31.9-33.3C549.7,67.9,535.8,52.6,517.8,52.6z M517.8,52.6c-18,0-31.9,15.3-31.9,33.3
				c0,18,13.9,33.3,31.9,33.3c18,0,31.9-15.2,31.9-33.3C549.7,67.9,535.8,52.6,517.8,52.6z M308.4,79v13.9h49.9V79H308.4z
				 M154.5,210.1H124v29.1h30.5c9.7,0,15.2-5.5,15.2-13.9C169.7,217,164.2,210.1,154.5,210.1z M153.1,175.4H124v25h29.1
				c9.7,0,13.9-5.5,13.9-12.5C167,181,162.8,175.4,153.1,175.4z M153.1,175.4H124v25h29.1c9.7,0,13.9-5.5,13.9-12.5
				C167,181,162.8,175.4,153.1,175.4z M154.5,210.1H124v29.1h30.5c9.7,0,15.2-5.5,15.2-13.9C169.7,217,164.2,210.1,154.5,210.1z
				 M308.4,79v13.9h49.9V79H308.4z M517.8,52.6c-18,0-31.9,15.3-31.9,33.3c0,18,13.9,33.3,31.9,33.3c18,0,31.9-15.2,31.9-33.3
				C549.7,67.9,535.8,52.6,517.8,52.6z M517.8,52.6c-18,0-31.9,15.3-31.9,33.3c0,18,13.9,33.3,31.9,33.3c18,0,31.9-15.2,31.9-33.3
				C549.7,67.9,535.8,52.6,517.8,52.6z M308.4,79v13.9h49.9V79H308.4z M154.5,210.1H124v29.1h30.5c9.7,0,15.2-5.5,15.2-13.9
				C169.7,217,164.2,210.1,154.5,210.1z M153.1,175.4H124v25h29.1c9.7,0,13.9-5.5,13.9-12.5C167,181,162.8,175.4,153.1,175.4z
				 M153.1,175.4H124v25h29.1c9.7,0,13.9-5.5,13.9-12.5C167,181,162.8,175.4,153.1,175.4z M154.5,210.1H124v29.1h30.5
				c9.7,0,15.2-5.5,15.2-13.9C169.7,217,164.2,210.1,154.5,210.1z M308.4,79v13.9h49.9V79H308.4z M517.8,52.6
				c-18,0-31.9,15.3-31.9,33.3c0,18,13.9,33.3,31.9,33.3c18,0,31.9-15.2,31.9-33.3C549.7,67.9,535.8,52.6,517.8,52.6z M517.8,52.6
				c-18,0-31.9,15.3-31.9,33.3c0,18,13.9,33.3,31.9,33.3c18,0,31.9-15.2,31.9-33.3C549.7,67.9,535.8,52.6,517.8,52.6z M308.4,79
				v13.9h49.9V79H308.4z M154.5,210.1H124v29.1h30.5c9.7,0,15.2-5.5,15.2-13.9C169.7,217,164.2,210.1,154.5,210.1z M153.1,175.4H124
				v25h29.1c9.7,0,13.9-5.5,13.9-12.5C167,181,162.8,175.4,153.1,175.4z M153.1,175.4H124v25h29.1c9.7,0,13.9-5.5,13.9-12.5
				C167,181,162.8,175.4,153.1,175.4z M154.5,210.1H124v29.1h30.5c9.7,0,15.2-5.5,15.2-13.9C169.7,217,164.2,210.1,154.5,210.1z
				 M308.4,79v13.9h49.9V79H308.4z M517.8,52.6c-18,0-31.9,15.3-31.9,33.3c0,18,13.9,33.3,31.9,33.3c18,0,31.9-15.2,31.9-33.3
				C549.7,67.9,535.8,52.6,517.8,52.6z M517.8,52.6c-18,0-31.9,15.3-31.9,33.3c0,18,13.9,33.3,31.9,33.3c18,0,31.9-15.2,31.9-33.3
				C549.7,67.9,535.8,52.6,517.8,52.6z M308.4,79v13.9h49.9V79H308.4z M154.5,210.1H124v29.1h30.5c9.7,0,15.2-5.5,15.2-13.9
				C169.7,217,164.2,210.1,154.5,210.1z M153.1,175.4H124v25h29.1c9.7,0,13.9-5.5,13.9-12.5C167,181,162.8,175.4,153.1,175.4z
				 M153.1,175.4H124v25h29.1c9.7,0,13.9-5.5,13.9-12.5C167,181,162.8,175.4,153.1,175.4z M154.5,210.1H124v29.1h30.5
				c9.7,0,15.2-5.5,15.2-13.9C169.7,217,164.2,210.1,154.5,210.1z M308.4,79v13.9h49.9V79H308.4z M517.8,52.6
				c-18,0-31.9,15.3-31.9,33.3c0,18,13.9,33.3,31.9,33.3c18,0,31.9-15.2,31.9-33.3C549.7,67.9,535.8,52.6,517.8,52.6z M517.8,52.6
				c-18,0-31.9,15.3-31.9,33.3c0,18,13.9,33.3,31.9,33.3c18,0,31.9-15.2,31.9-33.3C549.7,67.9,535.8,52.6,517.8,52.6z M308.4,79
				v13.9h49.9V79H308.4z M154.5,210.1H124v29.1h30.5c9.7,0,15.2-5.5,15.2-13.9C169.7,217,164.2,210.1,154.5,210.1z M153.1,175.4H124
				v25h29.1c9.7,0,13.9-5.5,13.9-12.5C167,181,162.8,175.4,153.1,175.4z M153.1,175.4H124v25h29.1c9.7,0,13.9-5.5,13.9-12.5
				C167,181,162.8,175.4,153.1,175.4z M154.5,210.1H124v29.1h30.5c9.7,0,15.2-5.5,15.2-13.9C169.7,217,164.2,210.1,154.5,210.1z
				 M308.4,79v13.9h49.9V79H308.4z M517.8,52.6c-18,0-31.9,15.3-31.9,33.3c0,18,13.9,33.3,31.9,33.3c18,0,31.9-15.2,31.9-33.3
				C549.7,67.9,535.8,52.6,517.8,52.6z M517.8,52.6c-18,0-31.9,15.3-31.9,33.3c0,18,13.9,33.3,31.9,33.3c18,0,31.9-15.2,31.9-33.3
				C549.7,67.9,535.8,52.6,517.8,52.6z M308.4,79v13.9h49.9V79H308.4z M154.5,210.1H124v29.1h30.5c9.7,0,15.2-5.5,15.2-13.9
				C169.7,217,164.2,210.1,154.5,210.1z M167,187.9c0-6.9-4.2-12.5-13.9-12.5H124v25h29.1C162.8,200.4,167,194.8,167,187.9z
				 M572.9,146.6v-123h-528v123h49v123h528v-123H572.9z M94.8,127.5H83.7V54H56v-9.7h66.6V54H94.8V127.5z M157.3,248.9h-44.4v-83.2
				h41.6c15.2,0,23.6,8.3,23.6,22.2c0,6.9-4.2,13.9-8.3,16.6c5.5,2.8,11.1,12.5,11.1,20.8C180.8,239.2,171.1,248.9,157.3,248.9z
				 M196,127.5h-61V44.3h59.6V54h-48.5v15.3h45.8V79h-45.8v13.9h45.8v9.7h-45.8v15.3H196V127.5z M270.7,211.5
				c0,23.6-16.6,38.8-36.1,38.8c-19.4,0-36.1-15.3-36.1-38.8v-45.8h11.1v45.8c0,16.6,11.1,29.1,25,29.1c13.9,0,25-12.5,25-29.1
				v-45.8h11.1V211.5z M251.5,119.2c8.3,0,16.6-4.2,23.6-9.7l6.9,6.9c-8.3,6.9-18,12.5-30.5,12.5c-23.6,0-43-19.4-43-43
				c0-23.6,19.4-43,43-43c12.5,0,22.2,4.2,30.5,12.5l-6.9,6.9c-6.9-5.5-15.2-9.7-23.6-9.7c-18,0-31.9,15.3-31.9,33.3
				C219.6,103.9,233.5,119.2,251.5,119.2z M366.1,248.9H355v-45.8c0-16.7-11.1-29.1-25-29.1c-13.9,0-25,12.5-25,29.1v45.8H294v-45.8
				c0-23.6,16.6-38.8,36.1-38.8c19.4,0,36,15.3,36,38.8V248.9z M369.4,127.5h-11.1v-25h-49.9v25h-11.1V44.3h11.1v25h49.9v-25h11.1
				V127.5z M460.1,248.9h-16.6l-43-41.6v41.6h-11.1v-83.2h11.1v41.6l43-41.6h16.6l-44.4,41.6L460.1,248.9z M460.9,127.5h-11.1V81.7
				c0-16.6-11.1-29.1-25-29.1c-13.9,0-25,12.5-25,29.1v45.8h-11.1V81.7c0-23.6,16.6-38.8,36.1-38.8c19.4,0,36.1,15.3,36.1,38.8
				V127.5z M537.5,248.9h-61v-83.2h59.6v9.7h-48.5v15.2h45.8v9.7h-45.8v13.9h45.8v9.7h-45.8v15.2h49.9V248.9z M517.8,128.9
				c-23.6,0-43-19.4-43-43c0-23.6,19.4-43,43-43c23.6,0,43,19.4,43,43C560.8,109.5,541.3,128.9,517.8,128.9z M610.8,175.4h-40.2
				v73.5h-11.1v-83.2h51.3V175.4z M517.8,52.6c-18,0-31.9,15.3-31.9,33.3c0,18,13.9,33.3,31.9,33.3c18,0,31.9-15.2,31.9-33.3
				C549.7,67.9,535.8,52.6,517.8,52.6z M308.4,92.8h49.9V79h-49.9V92.8z M154.5,210.1H124v29.1h30.5c9.7,0,15.2-5.5,15.2-13.9
				C169.7,217,164.2,210.1,154.5,210.1z M167,187.9c0-6.9-4.2-12.5-13.9-12.5H124v25h29.1C162.8,200.4,167,194.8,167,187.9z
				 M153.1,175.4H124v25h29.1c9.7,0,13.9-5.5,13.9-12.5C167,181,162.8,175.4,153.1,175.4z M154.5,210.1H124v29.1h30.5
				c9.7,0,15.2-5.5,15.2-13.9C169.7,217,164.2,210.1,154.5,210.1z M308.4,79v13.9h49.9V79H308.4z M517.8,52.6
				c-18,0-31.9,15.3-31.9,33.3c0,18,13.9,33.3,31.9,33.3c18,0,31.9-15.2,31.9-33.3C549.7,67.9,535.8,52.6,517.8,52.6z M517.8,52.6
				c-18,0-31.9,15.3-31.9,33.3c0,18,13.9,33.3,31.9,33.3c18,0,31.9-15.2,31.9-33.3C549.7,67.9,535.8,52.6,517.8,52.6z M308.4,79
				v13.9h49.9V79H308.4z M154.5,210.1H124v29.1h30.5c9.7,0,15.2-5.5,15.2-13.9C169.7,217,164.2,210.1,154.5,210.1z M153.1,175.4H124
				v25h29.1c9.7,0,13.9-5.5,13.9-12.5C167,181,162.8,175.4,153.1,175.4z M153.1,175.4H124v25h29.1c9.7,0,13.9-5.5,13.9-12.5
				C167,181,162.8,175.4,153.1,175.4z M154.5,210.1H124v29.1h30.5c9.7,0,15.2-5.5,15.2-13.9C169.7,217,164.2,210.1,154.5,210.1z
				 M308.4,79v13.9h49.9V79H308.4z M517.8,52.6c-18,0-31.9,15.3-31.9,33.3c0,18,13.9,33.3,31.9,33.3c18,0,31.9-15.2,31.9-33.3
				C549.7,67.9,535.8,52.6,517.8,52.6z M517.8,52.6c-18,0-31.9,15.3-31.9,33.3c0,18,13.9,33.3,31.9,33.3c18,0,31.9-15.2,31.9-33.3
				C549.7,67.9,535.8,52.6,517.8,52.6z M308.4,79v13.9h49.9V79H308.4z M154.5,210.1H124v29.1h30.5c9.7,0,15.2-5.5,15.2-13.9
				C169.7,217,164.2,210.1,154.5,210.1z M153.1,175.4H124v25h29.1c9.7,0,13.9-5.5,13.9-12.5C167,181,162.8,175.4,153.1,175.4z
				 M153.1,175.4H124v25h29.1c9.7,0,13.9-5.5,13.9-12.5C167,181,162.8,175.4,153.1,175.4z M154.5,210.1H124v29.1h30.5
				c9.7,0,15.2-5.5,15.2-13.9C169.7,217,164.2,210.1,154.5,210.1z M308.4,79v13.9h49.9V79H308.4z M517.8,52.6
				c-18,0-31.9,15.3-31.9,33.3c0,18,13.9,33.3,31.9,33.3c18,0,31.9-15.2,31.9-33.3C549.7,67.9,535.8,52.6,517.8,52.6z M517.8,52.6
				c-18,0-31.9,15.3-31.9,33.3c0,18,13.9,33.3,31.9,33.3c18,0,31.9-15.2,31.9-33.3C549.7,67.9,535.8,52.6,517.8,52.6z M308.4,79
				v13.9h49.9V79H308.4z M154.5,210.1H124v29.1h30.5c9.7,0,15.2-5.5,15.2-13.9C169.7,217,164.2,210.1,154.5,210.1z M153.1,175.4H124
				v25h29.1c9.7,0,13.9-5.5,13.9-12.5C167,181,162.8,175.4,153.1,175.4z M153.1,175.4H124v25h29.1c9.7,0,13.9-5.5,13.9-12.5
				C167,181,162.8,175.4,153.1,175.4z M154.5,210.1H124v29.1h30.5c9.7,0,15.2-5.5,15.2-13.9C169.7,217,164.2,210.1,154.5,210.1z
				 M308.4,79v13.9h49.9V79H308.4z M517.8,52.6c-18,0-31.9,15.3-31.9,33.3c0,18,13.9,33.3,31.9,33.3c18,0,31.9-15.2,31.9-33.3
				C549.7,67.9,535.8,52.6,517.8,52.6z M517.8,52.6c-18,0-31.9,15.3-31.9,33.3c0,18,13.9,33.3,31.9,33.3c18,0,31.9-15.2,31.9-33.3
				C549.7,67.9,535.8,52.6,517.8,52.6z M308.4,79v13.9h49.9V79H308.4z M154.5,210.1H124v29.1h30.5c9.7,0,15.2-5.5,15.2-13.9
				C169.7,217,164.2,210.1,154.5,210.1z M153.1,175.4H124v25h29.1c9.7,0,13.9-5.5,13.9-12.5C167,181,162.8,175.4,153.1,175.4z
				 M153.1,175.4H124v25h29.1c9.7,0,13.9-5.5,13.9-12.5C167,181,162.8,175.4,153.1,175.4z M154.5,210.1H124v29.1h30.5
				c9.7,0,15.2-5.5,15.2-13.9C169.7,217,164.2,210.1,154.5,210.1z M308.4,79v13.9h49.9V79H308.4z M517.8,52.6
				c-18,0-31.9,15.3-31.9,33.3c0,18,13.9,33.3,31.9,33.3c18,0,31.9-15.2,31.9-33.3C549.7,67.9,535.8,52.6,517.8,52.6z M517.8,52.6
				c-18,0-31.9,15.3-31.9,33.3c0,18,13.9,33.3,31.9,33.3c18,0,31.9-15.2,31.9-33.3C549.7,67.9,535.8,52.6,517.8,52.6z M308.4,79
				v13.9h49.9V79H308.4z M154.5,210.1H124v29.1h30.5c9.7,0,15.2-5.5,15.2-13.9C169.7,217,164.2,210.1,154.5,210.1z M153.1,175.4H124
				v25h29.1c9.7,0,13.9-5.5,13.9-12.5C167,181,162.8,175.4,153.1,175.4z M153.1,175.4H124v25h29.1c9.7,0,13.9-5.5,13.9-12.5
				C167,181,162.8,175.4,153.1,175.4z M154.5,210.1H124v29.1h30.5c9.7,0,15.2-5.5,15.2-13.9C169.7,217,164.2,210.1,154.5,210.1z
				 M308.4,79v13.9h49.9V79H308.4z M517.8,52.6c-18,0-31.9,15.3-31.9,33.3c0,18,13.9,33.3,31.9,33.3c18,0,31.9-15.2,31.9-33.3
				C549.7,67.9,535.8,52.6,517.8,52.6z M517.8,52.6c-18,0-31.9,15.3-31.9,33.3c0,18,13.9,33.3,31.9,33.3c18,0,31.9-15.2,31.9-33.3
				C549.7,67.9,535.8,52.6,517.8,52.6z M308.4,79v13.9h49.9V79H308.4z M154.5,210.1H124v29.1h30.5c9.7,0,15.2-5.5,15.2-13.9
				C169.7,217,164.2,210.1,154.5,210.1z M153.1,175.4H124v25h29.1c9.7,0,13.9-5.5,13.9-12.5C167,181,162.8,175.4,153.1,175.4z
				 M308.4,79v13.9h49.9V79H308.4z M517.8,52.6c-18,0-31.9,15.3-31.9,33.3c0,18,13.9,33.3,31.9,33.3c18,0,31.9-15.2,31.9-33.3
				C549.7,67.9,535.8,52.6,517.8,52.6z M517.8,52.6c-18,0-31.9,15.3-31.9,33.3c0,18,13.9,33.3,31.9,33.3c18,0,31.9-15.2,31.9-33.3
				C549.7,67.9,535.8,52.6,517.8,52.6z M308.4,79v13.9h49.9V79H308.4z M308.4,79v13.9h49.9V79H308.4z M517.8,52.6
				c-18,0-31.9,15.3-31.9,33.3c0,18,13.9,33.3,31.9,33.3c18,0,31.9-15.2,31.9-33.3C549.7,67.9,535.8,52.6,517.8,52.6z M517.8,52.6
				c-18,0-31.9,15.3-31.9,33.3c0,18,13.9,33.3,31.9,33.3c18,0,31.9-15.2,31.9-33.3C549.7,67.9,535.8,52.6,517.8,52.6z M308.4,79
				v13.9h49.9V79H308.4z M308.4,79v13.9h49.9V79H308.4z M517.8,52.6c-18,0-31.9,15.3-31.9,33.3c0,18,13.9,33.3,31.9,33.3
				c18,0,31.9-15.2,31.9-33.3C549.7,67.9,535.8,52.6,517.8,52.6z M517.8,52.6c-18,0-31.9,15.3-31.9,33.3c0,18,13.9,33.3,31.9,33.3
				c18,0,31.9-15.2,31.9-33.3C549.7,67.9,535.8,52.6,517.8,52.6z M308.4,79v13.9h49.9V79H308.4z M308.4,79v13.9h49.9V79H308.4z
				 M517.8,52.6c-18,0-31.9,15.3-31.9,33.3c0,18,13.9,33.3,31.9,33.3c18,0,31.9-15.2,31.9-33.3C549.7,67.9,535.8,52.6,517.8,52.6z
				 M517.8,52.6c-18,0-31.9,15.3-31.9,33.3c0,18,13.9,33.3,31.9,33.3c18,0,31.9-15.2,31.9-33.3C549.7,67.9,535.8,52.6,517.8,52.6z
				 M308.4,79v13.9h49.9V79H308.4z M308.4,79v13.9h49.9V79H308.4z M308.4,79v13.9h49.9V79H308.4z"/>
		</g>
		<g>
			<path class="st0" d="M358.3,44.3v25h-49.9v-25h-11.1v83.2h11.1v-25h49.9v25h11.1V44.3H358.3z M358.3,92.8h-49.9V79h49.9V92.8z"/>
		</g>
		<g>
			<path class="st0" d="M275.1,109.5l6.9,6.9c-8.3,6.9-18,12.5-30.5,12.5c-23.6,0-43-19.4-43-43c0-23.6,19.4-43,43-43
				c12.5,0,22.2,4.2,30.5,12.5l-6.9,6.9c-6.9-5.5-15.2-9.7-23.6-9.7c-18,0-31.9,15.3-31.9,33.3c0,18,13.9,33.3,31.9,33.3
				C259.8,119.2,268.1,115,275.1,109.5z"/>
		</g>
		<g>
			<polygon class="st0" points="196,117.8 196,127.5 135,127.5 135,44.3 194.6,44.3 194.6,54 146.1,54 146.1,69.3 191.9,69.3 
				191.9,79 146.1,79 146.1,92.8 191.9,92.8 191.9,102.5 146.1,102.5 146.1,117.8 			"/>
		</g>
		<g>
			<polygon class="st0" points="122.5,44.3 122.5,54 94.8,54 94.8,127.5 83.7,127.5 83.7,54 56,54 56,44.3 			"/>
		</g>
		<g>
			<path class="st0" d="M169.7,204.5c4.2-2.8,8.3-9.7,8.3-16.6c0-13.9-8.3-22.2-23.6-22.2h-41.6v83.2h44.4
				c13.9,0,23.6-9.7,23.6-23.6C180.8,217,175.3,207.3,169.7,204.5z M124,175.4h29.1c9.7,0,13.9,5.6,13.9,12.5
				c0,6.9-4.2,12.5-13.9,12.5H124V175.4z M154.5,239.2H124v-29.1h30.5c9.7,0,15.2,6.9,15.2,15.3
				C169.7,233.7,164.2,239.2,154.5,239.2z"/>
		</g>
		<g>
			<path class="st0" d="M270.7,165.7v45.8c0,23.6-16.6,38.8-36.1,38.8c-19.4,0-36.1-15.3-36.1-38.8v-45.8h11.1v45.8
				c0,16.6,11.1,29.1,25,29.1c13.9,0,25-12.5,25-29.1v-45.8H270.7z"/>
		</g>
		<g>
			<path class="st0" d="M366.1,203.2v45.8H355v-45.8c0-16.7-11.1-29.1-25-29.1c-13.9,0-25,12.5-25,29.1v45.8H294v-45.8
				c0-23.6,16.6-38.8,36.1-38.8C349.5,164.3,366.1,179.6,366.1,203.2z"/>
		</g>
		<g>
			<rect x="389.4" y="165.7" class="st0" width="11.1" height="83.2"/>
		</g>
		<g>
			<polygon class="st0" points="415.8,207.3 460.1,248.9 443.5,248.9 400.5,207.3 443.5,165.7 460.1,165.7 			"/>
		</g>
		<g>
			<polygon class="st0" points="537.5,239.2 537.5,248.9 476.5,248.9 476.5,165.7 536.1,165.7 536.1,175.4 487.6,175.4 487.6,190.7 
				533.4,190.7 533.4,200.4 487.6,200.4 487.6,214.2 533.4,214.2 533.4,224 487.6,224 487.6,239.2 			"/>
		</g>
		<g>
			<path class="st0" d="M460.9,81.7v45.8h-11.1V81.7c0-16.6-11.1-29.1-25-29.1c-13.9,0-25,12.5-25,29.1v45.8h-11.1V81.7
				c0-23.6,16.6-38.8,36.1-38.8C444.3,42.9,460.9,58.2,460.9,81.7z"/>
		</g>
		<g>
			<path class="st0" d="M517.8,42.9c-23.6,0-43,19.4-43,43c0,23.6,19.4,43,43,43c23.6,0,43-19.4,43-43
				C560.8,62.3,541.3,42.9,517.8,42.9z M517.8,119.2c-18,0-31.9-15.2-31.9-33.3c0-18,13.9-33.3,31.9-33.3c18,0,31.9,15.3,31.9,33.3
				C549.7,103.9,535.8,119.2,517.8,119.2z"/>
		</g>
		<g>
			<polygon class="st0" points="610.8,165.7 610.8,175.4 570.5,175.4 570.5,248.9 559.4,248.9 559.4,165.7 			"/>
		</g>
	</g>
	<g>
		<path class="st1" d="M640,299.6H26.3l45-131.3H25.4L4.4,3.6h587.9l21,115h77L640,299.6z M37.5,291.6h596.4l45.8-165h-73.1l-21-115
			H13.5l19,148.7h50L37.5,291.6z"/>
	</g>
	<g>
		<path class="st1" d="M660.3,287.2c0-6.8,5.5-12.2,13-12.2l5.4,0c3.4,0,6.1-2.7,6.2-6.1c0-3.4-2.7-6.1-6.1-6.2l-17-0.1l0-4.8
			l17,0.1c7.5,0,11.5,4.8,11.5,11c0,6.1-4.1,10.9-11.6,10.8l-5.4,0c-4.8,0-7.5,3.4-7.5,7.5l0,6.8l23.8,0.1l0,4.8l-29.3-0.2
			L660.3,287.2z"/>
		<path class="st1" d="M699,294.2l15.7,0.1c4.8,0,7.5-2.7,7.5-6.8c0-4.1-2.7-7.5-7.5-7.5l-14.3-0.1l0-4.8l13.6,0.1
			c4.8,0,6.8-2.7,6.8-6.1c0-3.4-2-6.1-6.8-6.2l-15-0.1l0-4.8l15.7,0.1c7.5,0,11.6,4.1,11.5,11c0,3.4-2.1,6.8-4.1,8.1
			c2.7,1.4,5.4,6.2,5.4,10.2c0,6.8-4.8,11.6-11.6,11.5l-17-0.1L699,294.2z"/>
	</g>
</g>
</svg>
